<?xml version="1.0" encoding="UTF-8" standalone="no"?>
<!-- Created with Inkscape (http://www.inkscape.org/) -->

<svg
   xmlns:dc="http://purl.org/dc/elements/1.1/"
   xmlns:cc="http://creativecommons.org/ns#"
   xmlns:rdf="http://www.w3.org/1999/02/22-rdf-syntax-ns#"
   xmlns:svg="http://www.w3.org/2000/svg"
   xmlns="http://www.w3.org/2000/svg"
   xmlns:sodipodi="http://sodipodi.sourceforge.net/DTD/sodipodi-0.dtd"
   xmlns:inkscape="http://www.inkscape.org/namespaces/inkscape"
   width="1024"
   height="600"
   viewBox="0 0 270.93333 158.75"
   version="1.1"
   id="svg8"
   inkscape:version="0.92.3 (2405546, 2018-03-11)"
   sodipodi:docname="background.svg">
  <defs
     id="defs2" />
  <sodipodi:namedview
     id="base"
     pagecolor="#ffffff"
     bordercolor="#666666"
     borderopacity="1.0"
     inkscape:pageopacity="0.0"
     inkscape:pageshadow="2"
     inkscape:zoom="0.98994949"
     inkscape:cx="452.96623"
     inkscape:cy="331.24902"
     inkscape:document-units="mm"
     inkscape:current-layer="layer2"
     showgrid="false"
     units="px"
     fit-margin-top="0"
     inkscape:window-width="1920"
     inkscape:window-height="1016"
     inkscape:window-x="1920"
     inkscape:window-y="27"
     inkscape:window-maximized="1" />
  <metadata
     id="metadata5">
    <rdf:RDF>
      <cc:Work
         rdf:about="">
        <dc:format>image/svg+xml</dc:format>
        <dc:type
           rdf:resource="http://purl.org/dc/dcmitype/StillImage" />
        <dc:title></dc:title>
      </cc:Work>
    </rdf:RDF>
  </metadata>
  <g
     inkscape:groupmode="layer"
     id="layer2"
     inkscape:label="background">
    <rect
       transform="translate(0,-138.24998)"
       style="fill:#f2f2f2;fill-opacity:1;stroke:none;stroke-width:0.26458332;stroke-opacity:1"
       id="rect840"
       width="271.54584"
       height="159.55991"
       x="-0.26726952"
       y="137.97461" />
  </g>
  <g
     inkscape:label="Layer 1"
     inkscape:groupmode="layer"
     id="layer1"
     transform="translate(0,-138.24998)">
    <path
       style="fill:#1dc8ed;stroke:#31f9ff;stroke-width:0.26458332px;stroke-linecap:butt;stroke-linejoin:miter;stroke-opacity:1;fill-opacity:1"
       d="m 57.997486,193.56667 c -0.44545,0.26727 -0.920763,0.49012 -1.336347,0.80181 -0.302381,0.22679 -0.475321,0.61136 -0.801809,0.80181 -7.083467,4.13202 1.870977,-1.62796 -4.543581,1.87089 -1.3017,0.71001 -2.457437,1.66446 -3.741774,2.40542 -1.03532,0.5973 -2.205072,0.95221 -3.207235,1.60362 -0.794038,0.51612 -1.407107,1.26885 -2.138156,1.87088 -0.784111,0.64574 -1.68716,1.15263 -2.405425,1.87089 -0.431085,0.43109 -2.490001,3.40909 -2.939965,4.00904 -0.342273,0.45637 -0.741945,0.86902 -1.069078,1.33635 -0.427352,0.61051 -1.182672,1.90432 -1.336347,2.6727 -0.08736,0.4368 0,0.8909 0,1.33635 0,0.35635 -0.0979,0.72642 0,1.06907 0.08824,0.30886 0.446294,0.49295 0.534538,0.80181 0.356812,1.24884 -0.394774,0.81162 0.267271,1.87089 0.30234,0.48374 0.781643,0.8436 1.069078,1.33635 0.341868,0.58606 0.534538,1.24725 0.801807,1.87088 0.44545,0.71272 0.910211,1.41373 1.336349,2.13816 0.465056,0.7906 0.846551,1.62991 1.336347,2.40542 0.580708,0.91946 1.247257,1.7818 1.870888,2.6727 0.623628,0.8909 1.247256,1.7818 1.870884,2.6727 1.15184,1.64548 2.06202,3.13109 3.474506,4.54358 0.758571,0.75857 1.62279,1.40443 2.405425,2.13815 4.152728,4.15273 -0.03281,0.10493 3.207234,2.93997 0.284456,0.2489 0.514829,0.55582 0.801809,0.80181 2.633443,2.25723 -0.244332,-0.35583 1.870887,1.33634 0.196766,0.15742 0.35636,0.35636 0.534538,0.53454 0.08909,0.0891 0.147743,0.22743 0.267269,0.26727 0.169037,0.0564 0.408548,-0.12599 0.53454,0 0.125992,0.12599 -0.125992,0.40855 0,0.53454 0.125992,0.126 0.386284,-0.0988 0.534538,0 0.165753,0.1105 0.09834,0.42896 0.267271,0.53454 0.575355,0.3596 1.264029,0.49838 1.870888,0.80181 0.464634,0.23232 0.887632,0.54006 1.336347,0.80181 0.620421,0.36191 1.228449,0.74786 1.870887,1.06908 0.429112,0.21455 0.887129,0.36608 1.336347,0.53454 0.263789,0.0989 0.602596,0.068 0.801809,0.26726 0.125992,0.126 0,0.35636 0,0.53454 0,0.26727 0,0.53454 0,0.80181 0,0.31946 -0.125992,1.06908 0.534538,1.06908 0.178181,0 -0.106908,-0.39199 0,-0.53454 0.19273,-0.25697 0.506563,-0.408 0.801809,-0.53454 3.950859,-1.69322 -1.484093,1.11533 1.870887,-0.80181 0.345927,-0.19767 0.78735,-0.25281 1.069078,-0.53454 1.77714,-1.77714 -2.644711,0.25328 1.603616,-1.87088 4.354309,-2.17716 -2.152626,2.10824 2.939965,-0.80181 0.172964,-0.0988 0.126408,-0.39368 0.267269,-0.53454 0.314981,-0.31498 0.7541,-0.48683 1.069078,-0.80181 0.140864,-0.14086 0.126407,-0.39367 0.267272,-0.53454 0.140861,-0.14086 0.471543,-0.0783 0.534537,-0.26727 0.140864,-0.42259 0,-0.8909 0,-1.33634 0,-0.97999 0,-1.95998 0,-2.93997 0,-3.28175 0.146849,0.15957 -0.534537,-3.4745 -0.148675,-0.79293 -0.01217,-1.64008 -0.267272,-2.40543 -0.203155,-0.60947 -0.797401,-1.02145 -1.069078,-1.60361 -1.126194,-2.41328 -0.355571,-2.3548 -1.870887,-4.54359 -0.358579,-0.51795 -0.917824,-0.86551 -1.336347,-1.33635 -0.295939,-0.33293 -0.486828,-0.75409 -0.801809,-1.06907 -0.140862,-0.14087 -0.393674,-0.12641 -0.534538,-0.26727 -0.140864,-0.14087 -0.164777,-0.36372 -0.267269,-0.53454 -0.165267,-0.27544 -0.415242,-0.50357 -0.53454,-0.80181 -0.06618,-0.16543 0.125992,-0.40855 0,-0.53454 -0.125992,-0.12599 -0.408546,0.12599 -0.534538,0 -0.05156,-0.0516 0.04326,-0.85279 0,-1.06908 -0.05525,-0.27625 -0.141279,-0.54982 -0.267271,-0.80181 -0.143653,-0.2873 -0.333875,-0.55098 -0.534538,-0.80181 -0.157414,-0.19676 -0.440955,-0.30057 -0.53454,-0.53453 -0.09926,-0.24816 0.07342,-0.54483 0,-0.80181 -0.109453,-0.3831 -0.448109,-0.68015 -0.534538,-1.06908 -0.391642,-1.76239 0.03532,-0.89013 0.534538,-2.13816 0.06617,-0.16543 0,-0.35636 0,-0.53453 0.178181,-0.26728 0.375171,-0.52292 0.53454,-0.80181 0.178178,-0.35636 0.356359,-0.71272 0.534538,-1.06908 0.08909,-0.0891 0.202448,-0.15923 0.267271,-0.26727 0.204986,-0.34165 0.285647,-0.75797 0.534538,-1.06908 0.124447,-0.15556 0.393676,-0.12641 0.53454,-0.26727 0.140862,-0.14086 0.218953,-0.34128 0.267269,-0.53454 0.04321,-0.17286 -0.125992,-0.40855 0,-0.53454 0.125992,-0.12599 0.36168,0.0432 0.534538,0 0.193265,-0.0483 0.345551,-0.20427 0.53454,-0.26727 0.08452,-0.0282 0.193143,0.0494 0.267269,0 0.209664,-0.13977 0.309158,-0.42185 0.53454,-0.53453 0.159369,-0.0797 0.386284,0.0988 0.534538,0 0.165753,-0.11051 0.147743,-0.37518 0.267269,-0.53455 0.245763,-0.32768 0.648819,-0.69674 1.069078,-0.8018 0.425931,-0.10649 1.827847,0.12412 2.138159,0 0.23396,-0.0936 0.300577,-0.44096 0.534537,-0.53454 0.248153,-0.0993 0.556149,0.10528 0.801809,0 3.535326,-1.51514 -0.1618,-0.13783 1.336347,-1.33635 0.311116,-0.24889 0.712719,-0.35636 1.069078,-0.53454 0.178181,-0.0891 0.393677,-0.12641 0.534541,-0.26727 0.140861,-0.14086 0.178178,-0.35636 0.267269,-0.53454 0.356359,-0.17818 0.750339,-0.29549 1.069078,-0.53454 0.07127,-0.0534 0,-0.17818 0,-0.26727 0,-0.17818 0,-0.35636 0,-0.53454 0,-0.17818 0,-0.35635 0,-0.53454 0,-0.17817 0.09884,-0.38628 0,-0.53453 -0.110504,-0.16576 -0.424037,-0.10152 -0.534541,-0.26727 -0.09789,-0.14684 0.09172,-1.10704 0,-1.33635 -0.147968,-0.36993 -0.386567,-0.69915 -0.534537,-1.06908 -0.03309,-0.0827 0,-0.17818 0,-0.26727 -0.08909,-0.35636 -0.122574,-0.73145 -0.267269,-1.06908 -0.258657,-0.60352 -1.385774,-1.74603 -1.603619,-2.13815 -0.17839,-0.3211 -0.122573,-0.73145 -0.267268,-1.06908 -0.534541,-1.24726 -0.44545,-0.44545 -1.336347,-1.33635 -0.063,-0.063 0.07968,-0.22743 0,-0.26727 -0.159369,-0.0797 -0.35636,0 -0.534541,0 -0.178178,0 -0.356359,0 -0.534537,0 -0.8909,0 -1.7818,0 -2.672697,0 -0.44545,0 -0.8909,0 -1.336347,0 -0.44545,0 -0.892437,-0.037 -1.336349,0 -0.627782,0.0523 -1.24232,0.22537 -1.870885,0.26727 -1.155605,0.077 -2.316337,0 -3.474506,0 -0.445447,0 -0.908036,-0.12237 -1.336346,0 -0.24229,0.0692 -0.309158,0.42185 -0.534538,0.53454 -0.239054,0.11953 -0.534541,0 -0.801809,0 -0.180999,0 -1.749129,0.0406 -1.870888,0 -0.64367,-0.21456 -1.247259,-0.53454 -1.870887,-0.80181 z"
       id="path815"
       inkscape:connector-curvature="0" />
    <path
       style="fill:#1dc8ed;stroke:#31f9ff;stroke-width:0.26458332px;stroke-linecap:butt;stroke-linejoin:miter;stroke-opacity:1;fill-opacity:1"
       d="m 171.8543,157.21802 c -0.62775,0.44116 -1.47641,-0.2647 -2.13815,0 -0.23396,0.0936 -0.30058,0.44095 -0.53454,0.53454 -0.24815,0.0993 -0.55366,-0.0993 -0.80181,0 -0.44081,0.17632 -0.80378,1.07105 -1.06908,1.33634 -0.22713,0.22714 -0.59276,0.29066 -0.80181,0.53454 -0.33807,0.39442 -0.45429,0.95022 -0.8018,1.33635 -0.56123,1.26311 -2.08313,1.28132 -2.93997,2.13816 -0.36733,0.36732 -0.47729,0.9307 -0.80181,1.33634 -4.64986,5.81233 1.68795,-3.07249 -2.13816,2.93997 -0.30626,0.48127 -0.76281,0.85508 -1.06907,1.33635 -0.32086,0.5042 -0.53454,1.06907 -0.80181,1.60361 -0.60245,1.20489 -1.19974,2.37566 -1.33635,3.74178 -0.0443,0.44324 0,0.89089 0,1.33634 0,0.62363 0,1.24726 0,1.87089 0,1.34356 -0.063,1.77609 0.26727,3.20724 0.1267,0.54902 0.36884,1.06508 0.53454,1.60361 0.19074,0.61991 0.28508,1.2722 0.53454,1.87089 0.1998,0.47952 0.54006,0.88763 0.80181,1.33635 0.36191,0.62042 0.65718,1.28246 1.06907,1.87088 0.21676,0.30965 0.57503,0.49943 0.80181,0.80181 0.31169,0.41559 0.50391,0.91078 0.80181,1.33635 0.32714,0.46733 0.71886,0.88606 1.06908,1.33635 0.27348,0.35161 0.50587,0.73614 0.80181,1.06908 0.41852,0.47083 0.8909,0.89089 1.33635,1.33634 0.44545,0.44545 0.89089,0.8909 1.33634,1.33635 0.8909,0.8909 1.7818,1.7818 2.6727,2.6727 0.44545,0.44545 0.87022,0.91259 1.33635,1.33634 0.51486,0.46806 1.08875,0.8683 1.60361,1.33635 1.53053,1.39138 1.03387,1.25825 2.6727,2.40543 3.73392,2.61374 -0.7037,-0.97098 2.13816,1.87088 1.36584,1.36585 -0.37277,-1.12065 1.06907,0.80181 0.65655,0.0953 0.111,0.5674 0.26727,0.80181 0.13978,0.20966 0.42185,0.30916 0.53454,0.53454 0.0797,0.15937 -0.0988,0.38628 0,0.53454 0.1105,0.16575 0.42404,0.10151 0.53454,0.26727 0.0988,0.14825 -0.0349,0.35982 0,0.53454 0.0553,0.27625 0.15629,0.54286 0.26727,0.8018 0.57338,1.33789 0.39804,0.75249 1.06908,1.87089 0.10249,0.17082 0.15148,0.37244 0.26727,0.53454 0.33157,0.4642 0.84967,0.80978 1.06908,1.33635 0.24229,0.5815 0.11448,1.25974 0.26727,1.87089 0.61829,2.47316 0.38716,0.23978 1.60361,2.67269 0.20316,0.40631 0.10777,0.911 0.26727,1.33635 0.95069,2.53516 0.0906,-0.62061 1.06908,1.33635 0.0797,0.15937 -0.0563,0.3655 0,0.53453 0.0398,0.11953 0.22743,0.14775 0.26727,0.26728 0.0563,0.16903 -0.12599,0.40854 0,0.53453 0.12599,0.126 0.40855,-0.12599 0.53454,0 0.12599,0.126 -0.12599,0.40855 0,0.53454 0.12599,0.126 0.35636,0 0.53454,0 0.0891,0 0.17818,0 0.26727,0 1.87088,0 3.74177,0 5.61266,0 0.26727,0 0.55365,0.0993 0.80181,0 0.23396,-0.0936 0.30058,-0.44095 0.53454,-0.53454 0.24815,-0.0993 0.57262,0.13751 0.80181,0 0.27544,-0.16526 0.3074,-0.57467 0.53453,-0.80181 0.063,-0.063 0.19315,0.0494 0.26727,0 0.20967,-0.13977 0.35636,-0.35636 0.53454,-0.53453 0.17818,-0.17818 0.39477,-0.32488 0.53454,-0.53454 0.0494,-0.0741 0,-0.17818 0,-0.26727 0,-0.17818 -0.0662,-0.3691 0,-0.53454 0.1193,-0.29824 0.41524,-0.50357 0.53454,-0.80181 0.0662,-0.16544 0,-0.35636 0,-0.53454 0,-0.35636 0,-0.71272 0,-1.06908 0,-0.26727 -0.0439,-0.53817 0,-0.8018 0.0463,-0.2779 0.21202,-0.52556 0.26727,-0.80181 0.0349,-0.17472 -0.0797,-0.37517 0,-0.53454 0.11269,-0.22538 0.39476,-0.32488 0.53454,-0.53454 0.26727,-0.40091 -0.53454,-0.26727 0,-0.80181 0.12599,-0.12599 0.40855,0.12599 0.53454,0 0.12599,-0.12599 -0.035,-0.35982 0,-0.53454 0.0553,-0.27626 0.17818,-0.53454 0.26727,-0.80181 0,-0.44545 -0.0732,-0.89696 0,-1.33634 0.36923,-2.2154 0.51343,-1.3551 1.06908,-3.20724 0.42631,-1.42106 0.0299,-1.32195 0.8018,-2.6727 0.12502,-0.21878 0.44096,-0.30057 0.53454,-0.53454 0.0993,-0.24815 -0.0524,-0.53972 0,-0.8018 0.34696,-1.73477 0.26727,0.59564 0.26727,-1.06908 0,-0.0891 -0.0797,-0.22743 0,-0.26727 0.15937,-0.0797 0.40855,0.12599 0.53454,0 0.25199,-0.25199 -0.25198,-0.8171 0,-1.06908 0.12599,-0.12599 0.37517,0.0797 0.53454,0 0.0797,-0.0398 -0.0797,-0.22743 0,-0.26727 0.23905,-0.11952 0.53454,0 0.80181,0 0.17818,0 0.40855,0.12599 0.53454,0 0.12599,-0.12599 -0.0797,-0.37517 0,-0.53454 0.53275,-1.06549 0.30546,-0.36909 0.80181,-0.53454 0.34214,-0.11405 1.14227,-0.63546 1.33634,-0.80181 0.38265,-0.32797 0.62853,-0.82432 1.06908,-1.06907 0.39711,-0.22062 0.911,-0.10777 1.33635,-0.26727 0.30077,-0.11279 0.49295,-0.4463 0.80181,-0.53454 0.34265,-0.0979 0.72643,0.0979 1.06908,0 0.30886,-0.0882 0.5145,-0.39089 0.8018,-0.53454 0.90109,-0.45054 0.94397,-0.0603 1.87089,-0.80181 0.15556,-0.12444 0.20428,-0.34555 0.26727,-0.53454 0.0282,-0.0845 -0.0797,-0.22743 0,-0.26727 1.24726,-0.62363 -0.17818,1.42544 0.53454,-1.06908 0.74377,-2.60319 0.15209,0.11519 1.06908,-0.8018 0.0862,-0.0862 -0.0742,-0.84633 0,-1.06908 0.0398,-0.11953 0.22743,-0.14775 0.26727,-0.26727 0.0563,-0.16904 -0.0662,-0.36911 0,-0.53454 0.1193,-0.29824 0.39089,-0.5145 0.53454,-0.80181 0.83653,-1.67307 0.29141,-0.87422 0.8018,-2.40543 0.15172,-0.45514 0.44046,-0.8659 0.53455,-1.33634 0.0874,-0.4368 0,-0.8909 0,-1.33635 0,-0.44545 0.0874,-0.89955 0,-1.33635 -0.0941,-0.47045 -0.41818,-0.87091 -0.53455,-1.33635 -0.15278,-0.61115 -0.11447,-1.25973 -0.26726,-1.87088 -0.23272,-0.93088 -0.79336,-1.75364 -1.06908,-2.6727 -0.13053,-0.43511 -0.10777,-0.911 -0.26727,-1.33635 0.0266,-0.7157 -0.85722,-0.80669 -1.06908,-1.33634 -0.0993,-0.24816 0.14826,-0.57943 0,-0.80181 -0.0988,-0.14826 -0.40855,0.12599 -0.53454,0 -0.12599,-0.12599 0.0797,-0.37517 0,-0.53454 -0.0398,-0.0797 -0.19314,0.0494 -0.26727,0 -0.20966,-0.13978 -0.35636,-0.35636 -0.53454,-0.53454 -0.17818,-0.17818 -0.40489,-0.31846 -0.53454,-0.53454 -0.14494,-0.24158 -0.068,-0.6026 -0.26726,-0.80181 -0.28173,-0.28173 -0.74487,-0.30296 -1.06908,-0.53454 -0.30758,-0.21969 -0.46374,-0.63277 -0.80181,-0.8018 -0.23906,-0.11953 -0.55366,0.0993 -0.80181,0 -0.23396,-0.0936 -0.30916,-0.42185 -0.53454,-0.53454 -0.32855,-0.16428 -0.73145,-0.12258 -1.06908,-0.26727 -1.35933,-0.58257 -0.30179,-0.37938 -1.33635,-1.06908 -0.0741,-0.0494 -0.17818,0 -0.26727,0 -0.17817,-0.0891 -0.37516,-0.14774 -0.53453,-0.26727 -0.20159,-0.15119 -0.32488,-0.39476 -0.53454,-0.53454 -0.0741,-0.0494 -0.17818,0 -0.26727,0 -0.17818,0 -0.37517,0.0797 -0.53454,0 -0.22538,-0.11269 -0.32488,-0.39476 -0.53454,-0.53454 -0.0741,-0.0494 -0.18455,0.0331 -0.26727,0 -0.36993,-0.14797 -0.68015,-0.44811 -1.06908,-0.53454 -4.67118,-1.03804 2.03806,1.14596 -2.67269,-0.26727 -0.45953,-0.13786 -0.90724,-0.31998 -1.33635,-0.53454 -0.28731,-0.14365 -0.49295,-0.44629 -0.80181,-0.53454 -0.34265,-0.0979 -0.71272,0 -1.06908,0 -0.17818,0 -0.35636,0 -0.53454,0 -0.98491,0 1.26355,0.0216 -1.33635,-0.26727 -0.44272,-0.0492 -0.89954,0.0874 -1.33634,0 -0.47045,-0.0941 -0.87091,-0.41817 -1.33635,-0.53453 -0.25929,-0.0648 -0.53454,0 -0.80181,0 -0.35636,-0.17818 -0.69915,-0.38657 -1.06908,-0.53454 -0.0827,-0.0331 -0.17939,0.0146 -0.26727,0 -0.44809,-0.0747 -0.88664,-0.20303 -1.33634,-0.26727 -0.17639,-0.0252 -0.40855,0.12599 -0.53454,0 -0.12599,-0.126 0.12599,-0.40855 0,-0.53454 -0.53454,-0.53454 -0.40091,0.26727 -0.80181,0 -0.20967,-0.13978 -0.30916,-0.42185 -0.53454,-0.53454 -0.15937,-0.0797 -0.35982,0.0349 -0.53454,0 -0.27626,-0.0553 -0.52555,-0.21202 -0.80181,-0.26727 -0.32929,-0.0659 -1.03455,0.1006 -1.33635,0 -0.37797,-0.12599 -0.68598,-0.42509 -1.06907,-0.53454 -0.51398,-0.14685 -1.08504,0.12964 -1.60362,0 -4.27371,-1.70948 1.07947,0.23988 -2.40543,-0.53454 -0.46834,-0.10407 -0.86311,-0.45567 -1.33634,-0.53454 -1.04446,-0.17407 -3.59178,0.30382 -4.54359,-0.26727 -0.15278,-0.0917 0.0797,-0.37517 0,-0.53454 -0.0398,-0.0797 -0.26727,0.0891 -0.26727,0 0,-0.19921 0.20428,-0.34555 0.26727,-0.53454 0.0282,-0.0845 0,-0.17818 0,-0.26727 0,-0.35635 0,-0.71271 0,-1.06907 z"
       id="path817"
       inkscape:connector-curvature="0" />
    <path
       style="fill:#1dc8ed;stroke:#31f9ff;stroke-width:0.26458332px;stroke-linecap:butt;stroke-linejoin:miter;stroke-opacity:1;fill-opacity:1"
       d="m 121.8749,233.12256 c -1.90058,0.95029 -0.41575,-0.0594 -1.60361,1.60362 -0.2197,0.30757 -0.55984,0.51144 -0.80181,0.80181 -0.25159,0.3019 -1.29288,2.03384 -1.33635,2.13815 -0.24946,0.5987 -0.3164,1.26009 -0.53454,1.87089 -0.2282,0.63896 -0.57361,1.23193 -0.80181,1.87089 -0.99325,2.78111 -0.17346,0.9033 -0.80181,3.20723 -0.14825,0.5436 -0.35636,1.06908 -0.53454,1.60362 -0.17818,0.53454 -0.30138,1.09067 -0.53454,1.60362 -0.21496,0.47291 -0.65253,0.83877 -0.8018,1.33634 -0.128,0.42667 0.16543,0.92276 0,1.33635 -0.21186,0.52965 -0.78165,0.8436 -1.06908,1.33635 -0.34187,0.58606 -0.49838,1.26403 -0.80181,1.87089 -0.2551,0.51019 -1.59853,2.60708 -1.87089,2.93996 -0.39891,0.48756 -0.98691,0.81219 -1.33634,1.33635 -0.61676,0.92513 -1.03654,2.69244 -1.33635,3.74177 -0.17818,0.62363 -0.34817,1.24966 -0.53454,1.87089 -0.081,0.26984 -0.22743,0.52291 -0.26727,0.80181 -0.0504,0.35277 0,0.71271 0,1.06907 0,0.44545 0,0.8909 0,1.33635 0,0.26727 0.0993,0.55366 0,0.80181 -0.0936,0.23396 -0.37713,0.33777 -0.53454,0.53454 -0.20066,0.25083 -0.39088,0.5145 -0.53454,0.80181 -0.83859,1.67718 0.31286,-0.15956 -0.26727,1.87088 -0.42253,1.47885 -0.50492,0.20804 -1.06907,1.33635 -0.0797,0.15937 0.0797,0.37517 0,0.53454 -0.0399,0.0797 -0.20428,-0.063 -0.26728,0 -0.063,0.063 0.0797,0.22743 0,0.26727 -0.15937,0.0797 -0.53453,-0.17818 -0.53453,0 0,0.25198 0.38334,0.33295 0.53453,0.53454 0.11953,0.15937 0.12641,0.39367 0.26728,0.53454 0.14086,0.14086 0.39367,0.12641 0.53453,0.26727 0.31498,0.31498 0.45398,0.79081 0.80181,1.06908 0.13914,0.11131 0.35982,-0.035 0.53454,0 0.27626,0.0553 0.54175,0.15891 0.80181,0.26727 0.80994,0.33747 1.59408,0.73499 2.40542,1.06908 1.17599,0.48422 4.40263,1.61706 5.34539,1.87088 1.23172,0.33162 2.49658,0.5251 3.74178,0.80181 1.1603,0.25784 2.30577,0.58538 3.4745,0.80181 1.54202,0.28556 6.27486,0.83846 7.75082,1.06908 1.51949,0.23742 3.01237,0.65825 4.54358,0.80181 1.33051,0.12473 2.67586,-0.0919 4.00904,0 9.15385,0.63129 -0.97911,0.45358 6.68174,0.8018 0.97898,0.0445 1.95998,0 2.93997,0 1.15816,0 2.31633,0 3.4745,0 0.62363,0 1.24726,0 1.87089,0 0.44545,0 0.90419,-0.10803 1.33634,0 0.31163,0.0779 0.49295,0.4463 0.80181,0.53454 0.34265,0.0979 0.71272,0 1.06908,0 0.26727,0 0.53454,0 0.80181,0 0.44545,0 0.89955,-0.0874 1.33635,0 0.47044,0.0941 0.868,0.43047 1.33634,0.53454 0.34788,0.0773 0.71272,0 1.06908,0 0.44545,0 0.8909,0 1.33635,0 1.95998,0 3.91995,0 5.87993,0 0.71272,0 1.43032,-0.0833 2.13816,0 0.81574,0.096 1.58857,0.44856 2.40542,0.53454 8.00526,0.84266 -2.67314,-0.93551 5.34539,0.26727 1.79698,0.26955 3.54234,0.8437 5.34539,1.06908 2.79829,0.34978 4.43519,0.26727 7.21628,0.26727 1.24726,0 2.49819,-0.0957 3.74177,0 1.08064,0.0831 2.12786,0.43641 3.20724,0.53454 0.88724,0.0807 1.78179,0 2.67269,0 0.71272,0 1.42544,0 2.13816,0 0.44545,0 0.89955,0.0874 1.33635,0 0.47044,-0.0941 0.87504,-0.40274 1.33634,-0.53454 0.5928,-0.16937 0.53277,0.26904 1.06908,-0.26727 0.14087,-0.14086 0.11171,-0.41009 0.26727,-0.53454 0.31112,-0.24889 0.763,-0.27948 1.06908,-0.53454 0.24677,-0.20564 0.3643,-0.52942 0.53454,-0.80181 0.27532,-0.44052 0.54953,-0.88224 0.80181,-1.33635 0.73375,-1.32075 0.53454,-0.83472 0.53454,-2.40542 0,-0.53454 0,-1.06908 0,-1.60362 0,-0.53454 0.0956,-1.0777 0,-1.60362 -0.13481,-0.74141 -0.92943,-2.09138 -1.33635,-2.67269 -0.32713,-0.46734 -0.72681,-0.87999 -1.06908,-1.33635 -2.36284,-3.15045 1.59724,1.81891 -1.33635,-1.60362 -0.28989,-0.33821 -0.46359,-0.77918 -0.80181,-1.06907 -0.3025,-0.25929 -0.83749,-0.21033 -1.06907,-0.53454 -0.26404,-0.36966 -0.0265,-0.95113 -0.26727,-1.33635 -0.23609,-0.37774 -0.78391,-0.45961 -1.06908,-0.80181 -0.18036,-0.21643 -0.10352,-0.57256 -0.26727,-0.80181 -1.38407,-1.9377 -0.71749,-0.25613 -1.87089,-1.87089 -0.23158,-0.3242 -0.28564,-0.75796 -0.53454,-1.06907 -0.12444,-0.15556 -0.36371,-0.16478 -0.53453,-0.26727 -0.27545,-0.16527 -0.55098,-0.33388 -0.80181,-0.53454 -0.19677,-0.15741 -0.35636,-0.35636 -0.53454,-0.53454 -0.0891,-0.0891 -0.14373,-0.24256 -0.26727,-0.26727 -0.34944,-0.0699 -0.71272,0 -1.06908,0 -0.0891,0 -0.18455,0.0331 -0.26727,0 -0.36992,-0.14797 -0.68599,-0.42508 -1.06908,-0.53454 -0.25699,-0.0734 -0.53973,0.0524 -0.80181,0 -0.63598,-0.1272 -1.24167,-0.37723 -1.87088,-0.53454 -0.44071,-0.11018 -0.90124,-0.13673 -1.33635,-0.26727 -0.91906,-0.27572 -1.74182,-0.83636 -2.6727,-1.06907 -2.47516,-0.6188 -1.30407,0.17327 -3.74177,-0.80181 -3.96895,-1.58758 -0.20898,-0.72042 -4.81085,-1.87089 -3.39579,-0.84895 -2.1556,-0.33627 -5.87993,-0.80181 -1.07545,-0.13443 -2.13816,-0.35636 -3.20723,-0.53454 -11.84544,-1.97424 5.37564,0.80594 -6.41447,-0.80181 -5.20123,-0.70926 -0.14136,-0.53454 -5.34539,-0.53454 -1.24726,0 -2.49452,0 -3.74178,0 -0.44545,0 -0.91375,-0.14086 -1.33634,0 -0.18899,0.063 -0.10152,0.42404 -0.26727,0.53454 -0.14826,0.0988 -0.35982,-0.0349 -0.53454,0 -0.27626,0.0553 -0.52292,0.22743 -0.80181,0.26727 -0.35278,0.0504 -0.72643,-0.0979 -1.06908,0 -0.30886,0.0883 -0.48683,0.47154 -0.80181,0.53454 -0.61152,0.12231 -1.25574,-0.10252 -1.87088,0 -0.47324,0.0789 -0.86312,0.45567 -1.33635,0.53454 -0.61515,0.10253 -1.24941,-0.0518 -1.87089,0 -0.4527,0.0377 -0.88433,0.22207 -1.33635,0.26727 -0.44324,0.0443 -0.8909,0 -1.33634,0 -0.17818,0 -0.38629,-0.0988 -0.53454,0 -0.16576,0.1105 -0.0681,0.53454 -0.26727,0.53454 -0.17818,0 0.12599,-0.40855 0,-0.53454 -0.126,-0.12599 -0.37517,0.0797 -0.53454,0 -0.0797,-0.0398 0.0331,-0.18455 0,-0.26727 -0.14797,-0.36993 -0.32955,-0.72743 -0.53454,-1.06908 -0.0648,-0.10804 -0.20245,-0.15923 -0.26727,-0.26727 -0.20499,-0.34164 -0.28565,-0.75796 -0.53454,-1.06908 -0.12445,-0.15555 -0.42404,-0.10151 -0.53454,-0.26726 -0.0988,-0.14826 0,-0.35636 0,-0.53454 0,-0.2281 0.0436,-1.8055 0,-1.87089 -0.0988,-0.14826 -0.40854,0.12599 -0.53454,0 -0.12599,-0.12599 0,-0.35636 0,-0.53454 0,-0.44545 0,-0.8909 0,-1.33635 0,-0.0891 -0.0494,-0.19314 0,-0.26727 0.0678,-0.10169 1.04548,-1.01008 1.06908,-1.06908 0.0993,-0.24815 -0.0993,-0.55365 0,-0.8018 0.0936,-0.23397 0.44096,-0.30058 0.53454,-0.53454 0.0993,-0.24816 -0.0524,-0.53973 0,-0.80181 0.0391,-0.19534 0.21895,-0.34128 0.26727,-0.53454 0.0648,-0.25929 0,-0.53454 0,-0.80181 0,-0.62363 0,-1.24726 0,-1.87089 0,-0.17817 -0.0988,-0.38628 0,-0.53453 0.1105,-0.16576 0.42403,-0.10152 0.53454,-0.26727 0.19767,-0.29651 -0.19767,-0.77257 0,-1.06908 0.1105,-0.16575 0.42404,-0.10152 0.53454,-0.26727 0.0988,-0.14826 0,-0.35636 0,-0.53454 0,-0.17818 0,-0.35636 0,-0.53454 0,-0.17818 0.0662,-0.3691 0,-0.53454 -0.48548,-1.21368 -0.45555,-0.41604 -1.06908,-1.33635 -0.34003,-0.51003 0.80016,-0.0902 -0.26727,-0.8018 -0.14826,-0.0988 -0.37517,0.0797 -0.53454,0 -0.22538,-0.1127 -0.30058,-0.44096 -0.53454,-0.53454 -0.24815,-0.0993 -0.53973,0.0524 -0.80181,0 -0.38915,-0.0778 -1.06648,-0.69387 -1.33635,-0.80181 -0.16543,-0.0662 -0.40854,0.12599 -0.53453,0 -0.12599,-0.126 0.12599,-0.40855 0,-0.53454 -0.12599,-0.12599 -0.36551,0.0563 -0.53454,0 -0.11953,-0.0399 -0.14128,-0.26727 -0.26727,-0.26727 -0.0891,0 0.0797,0.22742 0,0.26727 -0.0884,0.0442 -1.13066,0 -1.33635,0 -0.35636,0 -0.71272,0 -1.06908,0 -0.17818,0 -0.3655,0.0563 -0.53454,0 -0.11952,-0.0399 -0.14774,-0.22743 -0.26727,-0.26727 -0.15667,-0.0522 -0.98455,0.0564 -1.06907,0 -0.16576,-0.1105 -0.10152,-0.42404 -0.26728,-0.53454 -0.14825,-0.0988 -0.35636,0 -0.53453,0 -0.26727,0 -0.55366,0.0993 -0.80181,0 -0.23396,-0.0936 -0.30058,-0.44096 -0.53454,-0.53454 -0.24816,-0.0993 -0.53454,0 -0.80181,0 -0.62363,0 -1.24726,0 -1.87089,0 -0.89089,0 -1.78179,0 -2.67269,0 -0.17818,0 -0.35636,0 -0.53454,0 -0.17818,0 -0.38628,-0.0988 -0.53454,0 -0.16575,0.1105 -0.10152,0.42404 -0.26727,0.53454 -0.087,0.058 -1.1345,0 -1.33635,0 -0.17818,0 -0.53453,0.17818 -0.53453,0 0,-0.39842 0.35635,-0.71272 0.53453,-1.06908 z"
       id="path819"
       inkscape:connector-curvature="0" />
  </g>
</svg>
